<svg width="765" height="640" viewBox="0 0 153 128" fill="none" xmlns="http://www.w3.org/2000/svg">
<g clip-path="url(#clip0_2001_2)">
<path d="M30.7071 1.29289C30.3166 0.902374 29.6834 0.902374 29.2929 1.29289L22.9289 7.65685C22.5384 8.04738 22.5384 8.68054 22.9289 9.07107C23.3195 9.46159 23.9526 9.46159 24.3431 9.07107L30 3.41422L35.6569 9.07107C36.0474 9.46159 36.6805 9.46159 37.0711 9.07107C37.4616 8.68054 37.4616 8.04738 37.0711 7.65685L30.7071 1.29289ZM30 130H31L31 2H30H29L29 130H30Z" fill="black"/>
<path d="M127.707 118.707C128.098 118.317 128.098 117.683 127.707 117.293L121.343 110.929C120.953 110.538 120.319 110.538 119.929 110.929C119.538 111.319 119.538 111.953 119.929 112.343L125.586 118L119.929 123.657C119.538 124.047 119.538 124.681 119.929 125.071C120.319 125.462 120.953 125.462 121.343 125.071L127.707 118.707ZM0 118V119H127V118V117H0V118Z" fill="black"/>
<rect x="31" y="29" width="60" height="88" fill="#D9D9D9"/>
<rect x="31" y="29" width="30" height="10" fill="#D54611"/>
<rect x="31" y="42" width="17" height="10" fill="#D54611"/>
<rect x="52" y="42" width="25" height="10" fill="#D54611"/>
<rect x="81" y="42" width="10" height="10" fill="#D54611"/>
<rect x="64" y="29" width="27" height="10" fill="#D54611"/>
<rect x="31" y="55" width="30" height="10" fill="#D54611"/>
<rect x="31" y="68" width="17" height="10" fill="#D54611"/>
<rect x="52" y="68" width="25" height="10" fill="#D54611"/>
<rect x="81" y="68" width="10" height="10" fill="#D54611"/>
<rect x="64" y="55" width="27" height="10" fill="#D54611"/>
<rect x="31" y="81" width="30" height="10" fill="#D54611"/>
<rect x="31" y="107" width="30" height="10" fill="#D54611"/>
<rect x="31" y="94" width="17" height="10" fill="#D54611"/>
<rect x="52" y="94" width="25" height="10" fill="#D54611"/>
<rect x="81" y="94" width="10" height="10" fill="#D54611"/>
<rect x="64" y="81" width="27" height="10" fill="#D54611"/>
<rect x="64" y="107" width="27" height="10" fill="#D54611"/>
<path d="M11.3423 114.636C11.2287 114.636 11.1274 114.627 11.0384 114.608C10.9493 114.591 10.8878 114.574 10.8537 114.557L11.0241 113.966C11.187 114.008 11.331 114.023 11.456 114.011C11.581 114 11.6918 113.944 11.7884 113.844C11.8868 113.745 11.9768 113.585 12.0582 113.364L12.1832 113.023L10.5696 108.636H11.2969L12.5014 112.114H12.5469L13.7514 108.636H14.4787L12.6264 113.636C12.5431 113.862 12.4399 114.048 12.3168 114.196C12.1937 114.346 12.0507 114.456 11.8878 114.528C11.7268 114.6 11.545 114.636 11.3423 114.636ZM15.3161 110.193V109.58H18.8161V110.193H15.3161ZM15.3161 111.875V111.261H18.8161V111.875H15.3161ZM22.2031 113.08C21.7751 113.08 21.4105 112.963 21.1094 112.73C20.8082 112.495 20.5781 112.155 20.419 111.71C20.2599 111.263 20.1804 110.723 20.1804 110.091C20.1804 109.462 20.2599 108.925 20.419 108.48C20.58 108.033 20.8111 107.692 21.1122 107.457C21.4152 107.221 21.7789 107.102 22.2031 107.102C22.6274 107.102 22.9901 107.221 23.2912 107.457C23.5942 107.692 23.8253 108.033 23.9844 108.48C24.1454 108.925 24.2259 109.462 24.2259 110.091C24.2259 110.723 24.1463 111.263 23.9872 111.71C23.8281 112.155 23.598 112.495 23.2969 112.73C22.9957 112.963 22.6312 113.08 22.2031 113.08ZM22.2031 112.455C22.6274 112.455 22.9569 112.25 23.1918 111.841C23.4266 111.432 23.544 110.848 23.544 110.091C23.544 109.587 23.4901 109.158 23.3821 108.804C23.276 108.45 23.1226 108.18 22.9219 107.994C22.723 107.809 22.4834 107.716 22.2031 107.716C21.7827 107.716 21.4541 107.923 21.2173 108.338C20.9806 108.751 20.8622 109.335 20.8622 110.091C20.8622 110.595 20.9152 111.023 21.0213 111.375C21.1274 111.727 21.2798 111.995 21.4787 112.179C21.6795 112.363 21.9209 112.455 22.2031 112.455Z" fill="black"/>
<path d="M26 26H96V29H26V26Z" fill="#383838"/>
<path d="M7.88139 32.6364C7.76776 32.6364 7.66643 32.6269 7.57741 32.608C7.4884 32.5909 7.42685 32.5739 7.39276 32.5568L7.56321 31.9659C7.72609 32.0076 7.87003 32.0227 7.99503 32.0114C8.12003 32 8.23082 31.9441 8.32741 31.8438C8.4259 31.7453 8.51586 31.5852 8.5973 31.3636L8.7223 31.0227L7.10866 26.6364H7.83594L9.04048 30.1136H9.08594L10.2905 26.6364H11.0178L9.16548 31.6364C9.08215 31.8617 8.97893 32.0483 8.85582 32.196C8.73272 32.3456 8.58973 32.4564 8.42685 32.5284C8.26586 32.6004 8.08404 32.6364 7.88139 32.6364ZM11.8551 28.1932V27.5795H15.3551V28.1932H11.8551ZM11.8551 29.875V29.2614H15.3551V29.875H11.8551ZM18.6967 25.1023C18.9354 25.1042 19.174 25.1496 19.4126 25.2386C19.6513 25.3277 19.8691 25.4754 20.0661 25.6818C20.263 25.8864 20.4212 26.1657 20.5405 26.5199C20.6598 26.8741 20.7195 27.3182 20.7195 27.8523C20.7195 28.3693 20.6702 28.8286 20.5717 29.2301C20.4751 29.6297 20.335 29.9669 20.1513 30.2415C19.9695 30.5161 19.7479 30.7244 19.4865 30.8665C19.227 31.0085 18.9335 31.0795 18.6058 31.0795C18.2801 31.0795 17.9893 31.0152 17.7337 30.8864C17.4799 30.7557 17.2715 30.5748 17.1087 30.3438C16.9477 30.1108 16.8445 29.8409 16.799 29.5341H17.4922C17.5547 29.8011 17.6787 30.0218 17.8643 30.196C18.0518 30.3684 18.299 30.4545 18.6058 30.4545C19.0547 30.4545 19.4089 30.2585 19.6683 29.8665C19.9297 29.4744 20.0604 28.9205 20.0604 28.2045H20.0149C19.9089 28.3636 19.7829 28.5009 19.6371 28.6165C19.4912 28.732 19.3293 28.821 19.1513 28.8835C18.9732 28.946 18.7839 28.9773 18.5831 28.9773C18.2498 28.9773 17.9439 28.8949 17.6655 28.7301C17.389 28.5634 17.1674 28.3352 17.0007 28.0455C16.8359 27.7538 16.7536 27.4205 16.7536 27.0455C16.7536 26.6894 16.8331 26.3636 16.9922 26.0682C17.1532 25.7708 17.3786 25.5341 17.6683 25.358C17.96 25.1818 18.3028 25.0966 18.6967 25.1023ZM18.6967 25.7273C18.4581 25.7273 18.2431 25.7869 18.0518 25.9062C17.8625 26.0237 17.7119 26.1828 17.6001 26.3835C17.4903 26.5824 17.4354 26.803 17.4354 27.0455C17.4354 27.2879 17.4884 27.5085 17.5945 27.7074C17.7024 27.9044 17.8492 28.0616 18.0348 28.179C18.2223 28.2945 18.4354 28.3523 18.674 28.3523C18.8539 28.3523 19.0215 28.3172 19.1768 28.2472C19.3321 28.1752 19.4676 28.0777 19.5831 27.9545C19.7005 27.8295 19.7924 27.6884 19.8587 27.5312C19.925 27.3722 19.9581 27.2064 19.9581 27.0341C19.9581 26.8068 19.9032 26.5937 19.7933 26.3949C19.6854 26.196 19.5357 26.035 19.3445 25.9119C19.1551 25.7888 18.9392 25.7273 18.6967 25.7273ZM23.7003 31.0795C23.3101 31.0795 22.9654 31.0104 22.6662 30.8722C22.3688 30.732 22.1368 30.5398 21.9702 30.2955C21.8035 30.0492 21.7211 29.7689 21.723 29.4545C21.7211 29.2083 21.7694 28.9811 21.8679 28.7727C21.9664 28.5625 22.1009 28.3873 22.2713 28.2472C22.4437 28.1051 22.6359 28.0152 22.848 27.9773V27.9432C22.5696 27.8712 22.348 27.715 22.1832 27.4744C22.0185 27.232 21.937 26.9564 21.9389 26.6477C21.937 26.3523 22.0118 26.0881 22.1634 25.8551C22.3149 25.6222 22.5232 25.4384 22.7884 25.304C23.0554 25.1695 23.3594 25.1023 23.7003 25.1023C24.0374 25.1023 24.3385 25.1695 24.6037 25.304C24.8688 25.4384 25.0772 25.6222 25.2287 25.8551C25.3821 26.0881 25.4598 26.3523 25.4616 26.6477C25.4598 26.9564 25.3755 27.232 25.2088 27.4744C25.044 27.715 24.8253 27.8712 24.5526 27.9432V27.9773C24.7628 28.0152 24.9522 28.1051 25.1207 28.2472C25.2893 28.3873 25.4238 28.5625 25.5241 28.7727C25.6245 28.9811 25.6757 29.2083 25.6776 29.4545C25.6757 29.7689 25.5904 30.0492 25.4219 30.2955C25.2552 30.5398 25.0232 30.732 24.7259 30.8722C24.4304 31.0104 24.0885 31.0795 23.7003 31.0795ZM23.7003 30.4545C23.9635 30.4545 24.1908 30.4119 24.3821 30.3267C24.5734 30.2415 24.7211 30.1212 24.8253 29.9659C24.9295 29.8106 24.9825 29.6288 24.9844 29.4205C24.9825 29.2008 24.9257 29.0066 24.8139 28.8381C24.7022 28.6695 24.5497 28.5369 24.3565 28.4403C24.1652 28.3437 23.9465 28.2955 23.7003 28.2955C23.4522 28.2955 23.2306 28.3437 23.0355 28.4403C22.8423 28.5369 22.6899 28.6695 22.5781 28.8381C22.4683 29.0066 22.4143 29.2008 22.4162 29.4205C22.4143 29.6288 22.4645 29.8106 22.5668 29.9659C22.6709 30.1212 22.8196 30.2415 23.0128 30.3267C23.206 30.4119 23.4351 30.4545 23.7003 30.4545ZM23.7003 27.6932C23.9086 27.6932 24.0933 27.6515 24.2543 27.5682C24.4171 27.4848 24.545 27.3684 24.6378 27.2188C24.7306 27.0691 24.7779 26.8939 24.7798 26.6932C24.7779 26.4962 24.7315 26.3248 24.6406 26.179C24.5497 26.0312 24.4238 25.9176 24.2628 25.8381C24.1018 25.7566 23.9143 25.7159 23.7003 25.7159C23.4825 25.7159 23.2921 25.7566 23.1293 25.8381C22.9664 25.9176 22.8404 26.0312 22.7514 26.179C22.6624 26.3248 22.6188 26.4962 22.6207 26.6932C22.6188 26.8939 22.6634 27.0691 22.7543 27.2188C22.8471 27.3684 22.9749 27.4848 23.1378 27.5682C23.3007 27.6515 23.4882 27.6932 23.7003 27.6932Z" fill="black"/>
<path d="M104.186 21.6364L102.572 26H101.89L100.277 21.6364H101.004L102.208 25.1136H102.254L103.458 21.6364H104.186ZM102.231 27.4432C102.1 27.4432 101.988 27.3987 101.893 27.3097C101.8 27.2206 101.754 27.1136 101.754 26.9886C101.754 26.8636 101.8 26.7566 101.893 26.6676C101.988 26.5786 102.1 26.5341 102.231 26.5341C102.362 26.5341 102.474 26.5786 102.566 26.6676C102.661 26.7566 102.708 26.8636 102.708 26.9886C102.708 27.1136 102.661 27.2206 102.566 27.3097C102.474 27.3987 102.362 27.4432 102.231 27.4432ZM107.593 22.5568V21.9432H111.093V22.5568H107.593ZM107.593 24.2386V23.625H111.093V24.2386H107.593ZM114.833 26V25.4886L116.753 23.3864C116.979 23.1402 117.164 22.9261 117.31 22.7443C117.456 22.5606 117.564 22.3883 117.634 22.2273C117.706 22.0644 117.742 21.8939 117.742 21.7159C117.742 21.5114 117.693 21.3343 117.594 21.1847C117.498 21.035 117.365 20.9195 117.196 20.8381C117.028 20.7566 116.838 20.7159 116.628 20.7159C116.405 20.7159 116.21 20.7623 116.043 20.8551C115.878 20.946 115.75 21.0739 115.659 21.2386C115.57 21.4034 115.526 21.5966 115.526 21.8182H114.855C114.855 21.4773 114.934 21.178 115.091 20.9205C115.248 20.6629 115.462 20.4621 115.733 20.3182C116.006 20.1742 116.312 20.1023 116.651 20.1023C116.992 20.1023 117.294 20.1742 117.557 20.3182C117.82 20.4621 118.027 20.6562 118.176 20.9006C118.326 21.1449 118.401 21.4167 118.401 21.7159C118.401 21.9299 118.362 22.1392 118.284 22.3438C118.209 22.5464 118.076 22.7727 117.887 23.0227C117.699 23.2708 117.439 23.5739 117.105 23.9318L115.799 25.3295V25.375H118.503V26H114.833ZM119.415 24.8068V24.2273L121.972 20.1818H122.392V21.0795H122.108L120.176 24.1364V24.1818H123.62V24.8068H119.415ZM122.154 26V24.6307V24.3608V20.1818H122.824V26H122.154ZM124.911 26.0455C124.771 26.0455 124.65 25.9953 124.55 25.8949C124.45 25.7945 124.4 25.6742 124.4 25.5341C124.4 25.3939 124.45 25.2737 124.55 25.1733C124.65 25.0729 124.771 25.0227 124.911 25.0227C125.051 25.0227 125.171 25.0729 125.272 25.1733C125.372 25.2737 125.422 25.3939 125.422 25.5341C125.422 25.6269 125.399 25.7121 125.351 25.7898C125.306 25.8674 125.244 25.9299 125.167 25.9773C125.091 26.0227 125.006 26.0455 124.911 26.0455ZM128.315 26.0795C127.982 26.0795 127.681 26.0133 127.414 25.8807C127.147 25.7481 126.933 25.5663 126.772 25.3352C126.611 25.1042 126.523 24.8409 126.508 24.5455H127.19C127.217 24.8087 127.336 25.0265 127.548 25.1989C127.762 25.3693 128.018 25.4545 128.315 25.4545C128.554 25.4545 128.766 25.3987 128.951 25.2869C129.139 25.1752 129.286 25.0218 129.392 24.8267C129.5 24.6297 129.554 24.4072 129.554 24.1591C129.554 23.9053 129.498 23.679 129.386 23.4801C129.276 23.2794 129.125 23.1212 128.931 23.0057C128.738 22.8902 128.518 22.8314 128.27 22.8295C128.092 22.8277 127.909 22.8551 127.721 22.9119C127.534 22.9669 127.379 23.0379 127.258 23.125L126.599 23.0455L126.951 20.1818H129.974V20.8068H127.542L127.338 22.5227H127.372C127.491 22.428 127.641 22.3494 127.821 22.2869C128.001 22.2244 128.188 22.1932 128.383 22.1932C128.739 22.1932 129.056 22.2784 129.335 22.4489C129.615 22.6174 129.835 22.8485 129.994 23.142C130.155 23.4356 130.235 23.7708 130.235 24.1477C130.235 24.5189 130.152 24.8504 129.985 25.142C129.821 25.4318 129.593 25.661 129.304 25.8295C129.014 25.9962 128.684 26.0795 128.315 26.0795ZM133.625 26V21.6364H134.273V22.3182H134.33C134.421 22.0852 134.568 21.9044 134.77 21.7756C134.973 21.6449 135.216 21.5795 135.5 21.5795C135.788 21.5795 136.028 21.6449 136.219 21.7756C136.412 21.9044 136.563 22.0852 136.671 22.3182H136.716C136.828 22.0928 136.996 21.9138 137.219 21.7812C137.443 21.6468 137.711 21.5795 138.023 21.5795C138.413 21.5795 138.732 21.7017 138.98 21.946C139.229 22.1884 139.353 22.5663 139.353 23.0795V26H138.682V23.0795C138.682 22.7576 138.594 22.5275 138.418 22.3892C138.242 22.2509 138.034 22.1818 137.796 22.1818C137.489 22.1818 137.251 22.2746 137.083 22.4602C136.914 22.6439 136.83 22.8769 136.83 23.1591V26H136.148V23.0114C136.148 22.7633 136.068 22.5634 135.907 22.4119C135.746 22.2585 135.538 22.1818 135.284 22.1818C135.11 22.1818 134.947 22.2282 134.796 22.321C134.646 22.4138 134.525 22.5426 134.432 22.7074C134.341 22.8703 134.296 23.0587 134.296 23.2727V26H133.625ZM142.635 19.9091L140.76 26.875H140.147L142.022 19.9091H142.635ZM146.521 22.6136L145.919 22.7841C145.881 22.6837 145.825 22.5862 145.751 22.4915C145.679 22.3949 145.581 22.3153 145.456 22.2528C145.331 22.1903 145.171 22.1591 144.975 22.1591C144.708 22.1591 144.486 22.2206 144.308 22.3438C144.132 22.465 144.044 22.6193 144.044 22.8068C144.044 22.9735 144.104 23.1051 144.225 23.2017C144.347 23.2983 144.536 23.3788 144.794 23.4432L145.441 23.6023C145.832 23.697 146.122 23.8419 146.314 24.0369C146.505 24.2301 146.6 24.4792 146.6 24.7841C146.6 25.0341 146.529 25.2576 146.385 25.4545C146.243 25.6515 146.044 25.8068 145.788 25.9205C145.532 26.0341 145.235 26.0909 144.896 26.0909C144.451 26.0909 144.083 25.9943 143.791 25.8011C143.499 25.608 143.315 25.3258 143.237 24.9545L143.873 24.7955C143.934 25.0303 144.048 25.2064 144.217 25.3239C144.387 25.4413 144.61 25.5 144.885 25.5C145.197 25.5 145.445 25.4337 145.629 25.3011C145.815 25.1667 145.907 25.0057 145.907 24.8182C145.907 24.6667 145.854 24.5398 145.748 24.4375C145.642 24.3333 145.479 24.2557 145.26 24.2045L144.532 24.0341C144.133 23.9394 143.839 23.7926 143.652 23.5938C143.466 23.393 143.373 23.142 143.373 22.8409C143.373 22.5947 143.442 22.3769 143.581 22.1875C143.721 21.9981 143.911 21.8494 144.152 21.7415C144.394 21.6335 144.669 21.5795 144.975 21.5795C145.407 21.5795 145.746 21.6742 145.993 21.8636C146.241 22.053 146.417 22.303 146.521 22.6136Z" fill="#FF2240"/>
<path d="M101.039 47.7273C100.715 47.7273 100.437 47.6856 100.204 47.6023C99.9709 47.5208 99.7768 47.4129 99.6214 47.2784C99.468 47.1458 99.3459 47.0038 99.255 46.8523L99.7891 46.4773C99.8497 46.5568 99.9264 46.6477 100.019 46.75C100.112 46.8542 100.239 46.9441 100.4 47.0199C100.563 47.0975 100.776 47.1364 101.039 47.1364C101.391 47.1364 101.682 47.0511 101.911 46.8807C102.14 46.7102 102.255 46.4432 102.255 46.0795V45.1932H102.198C102.149 45.2727 102.079 45.3712 101.988 45.4886C101.899 45.6042 101.77 45.7074 101.602 45.7983C101.435 45.8873 101.21 45.9318 100.925 45.9318C100.573 45.9318 100.257 45.8485 99.9766 45.6818C99.6982 45.5152 99.4775 45.2727 99.3146 44.9545C99.1536 44.6364 99.0732 44.25 99.0732 43.7955C99.0732 43.3485 99.1518 42.9593 99.3089 42.6278C99.4661 42.2945 99.6849 42.0369 99.9652 41.8551C100.246 41.6714 100.569 41.5795 100.937 41.5795C101.221 41.5795 101.446 41.6269 101.613 41.7216C101.781 41.8144 101.91 41.9205 101.999 42.0398C102.09 42.1572 102.16 42.2538 102.21 42.3295H102.278V41.6364H102.925V46.125C102.925 46.5 102.84 46.8049 102.67 47.0398C102.501 47.2765 102.274 47.4498 101.988 47.5597C101.704 47.6714 101.388 47.7273 101.039 47.7273ZM101.016 45.3295C101.285 45.3295 101.513 45.268 101.698 45.1449C101.884 45.0218 102.025 44.8447 102.121 44.6136C102.218 44.3826 102.266 44.1061 102.266 43.7841C102.266 43.4697 102.219 43.1922 102.124 42.9517C102.03 42.7112 101.889 42.5227 101.704 42.3864C101.518 42.25 101.289 42.1818 101.016 42.1818C100.732 42.1818 100.496 42.2538 100.306 42.3977C100.119 42.5417 99.9775 42.7348 99.8828 42.9773C99.79 43.2197 99.7436 43.4886 99.7436 43.7841C99.7436 44.0871 99.791 44.3551 99.8857 44.5881C99.9822 44.8191 100.124 45.0009 100.312 45.1335C100.501 45.2642 100.736 45.3295 101.016 45.3295ZM106.675 43.1932V42.5795H110.175V43.1932H106.675ZM106.675 44.875V44.2614H110.175V44.875H106.675ZM116.426 42.7784V43.4034H113.881V42.7784H116.426ZM119.447 40.1023C119.685 40.1042 119.924 40.1496 120.163 40.2386C120.401 40.3277 120.619 40.4754 120.816 40.6818C121.013 40.8864 121.171 41.1657 121.29 41.5199C121.41 41.8741 121.469 42.3182 121.469 42.8523C121.469 43.3693 121.42 43.8286 121.322 44.2301C121.225 44.6297 121.085 44.9669 120.901 45.2415C120.719 45.5161 120.498 45.7244 120.237 45.8665C119.977 46.0085 119.683 46.0795 119.356 46.0795C119.03 46.0795 118.739 46.0152 118.484 45.8864C118.23 45.7557 118.022 45.5748 117.859 45.3438C117.698 45.1108 117.594 44.8409 117.549 44.5341H118.242C118.305 44.8011 118.429 45.0218 118.614 45.196C118.802 45.3684 119.049 45.4545 119.356 45.4545C119.805 45.4545 120.159 45.2585 120.418 44.8665C120.68 44.4744 120.81 43.9205 120.81 43.2045H120.765C120.659 43.3636 120.533 43.5009 120.387 43.6165C120.241 43.732 120.079 43.821 119.901 43.8835C119.723 43.946 119.534 43.9773 119.333 43.9773C119 43.9773 118.694 43.8949 118.415 43.7301C118.139 43.5634 117.917 43.3352 117.751 43.0455C117.586 42.7538 117.504 42.4205 117.504 42.0455C117.504 41.6894 117.583 41.3636 117.742 41.0682C117.903 40.7708 118.129 40.5341 118.418 40.358C118.71 40.1818 119.053 40.0966 119.447 40.1023ZM119.447 40.7273C119.208 40.7273 118.993 40.7869 118.802 40.9062C118.612 41.0237 118.462 41.1828 118.35 41.3835C118.24 41.5824 118.185 41.803 118.185 42.0455C118.185 42.2879 118.238 42.5085 118.344 42.7074C118.452 42.9044 118.599 43.0616 118.785 43.179C118.972 43.2945 119.185 43.3523 119.424 43.3523C119.604 43.3523 119.772 43.3172 119.927 43.2472C120.082 43.1752 120.218 43.0777 120.333 42.9545C120.451 42.8295 120.542 42.6884 120.609 42.5312C120.675 42.3722 120.708 42.2064 120.708 42.0341C120.708 41.8068 120.653 41.5937 120.543 41.3949C120.435 41.196 120.286 41.035 120.094 40.9119C119.905 40.7888 119.689 40.7273 119.447 40.7273ZM122.884 46.0455C122.743 46.0455 122.623 45.9953 122.523 45.8949C122.422 45.7945 122.372 45.6742 122.372 45.5341C122.372 45.3939 122.422 45.2737 122.523 45.1733C122.623 45.0729 122.743 45.0227 122.884 45.0227C123.024 45.0227 123.144 45.0729 123.244 45.1733C123.345 45.2737 123.395 45.3939 123.395 45.5341C123.395 45.6269 123.371 45.7121 123.324 45.7898C123.278 45.8674 123.217 45.9299 123.139 45.9773C123.063 46.0227 122.978 46.0455 122.884 46.0455ZM126.271 46.0795C125.88 46.0795 125.536 46.0104 125.237 45.8722C124.939 45.732 124.707 45.5398 124.54 45.2955C124.374 45.0492 124.291 44.7689 124.293 44.4545C124.291 44.2083 124.34 43.9811 124.438 43.7727C124.537 43.5625 124.671 43.3873 124.842 43.2472C125.014 43.1051 125.206 43.0152 125.418 42.9773V42.9432C125.14 42.8712 124.918 42.715 124.754 42.4744C124.589 42.232 124.507 41.9564 124.509 41.6477C124.507 41.3523 124.582 41.0881 124.734 40.8551C124.885 40.6222 125.094 40.4384 125.359 40.304C125.626 40.1695 125.93 40.1023 126.271 40.1023C126.608 40.1023 126.909 40.1695 127.174 40.304C127.439 40.4384 127.647 40.6222 127.799 40.8551C127.952 41.0881 128.03 41.3523 128.032 41.6477C128.03 41.9564 127.946 42.232 127.779 42.4744C127.614 42.715 127.396 42.8712 127.123 42.9432V42.9773C127.333 43.0152 127.522 43.1051 127.691 43.2472C127.86 43.3873 127.994 43.5625 128.094 43.7727C128.195 43.9811 128.246 44.2083 128.248 44.4545C128.246 44.7689 128.161 45.0492 127.992 45.2955C127.826 45.5398 127.594 45.732 127.296 45.8722C127.001 46.0104 126.659 46.0795 126.271 46.0795ZM126.271 45.4545C126.534 45.4545 126.761 45.4119 126.952 45.3267C127.144 45.2415 127.291 45.1212 127.396 44.9659C127.5 44.8106 127.553 44.6288 127.555 44.4205C127.553 44.2008 127.496 44.0066 127.384 43.8381C127.272 43.6695 127.12 43.5369 126.927 43.4403C126.736 43.3437 126.517 43.2955 126.271 43.2955C126.022 43.2955 125.801 43.3437 125.606 43.4403C125.413 43.5369 125.26 43.6695 125.148 43.8381C125.039 44.0066 124.985 44.2008 124.987 44.4205C124.985 44.6288 125.035 44.8106 125.137 44.9659C125.241 45.1212 125.39 45.2415 125.583 45.3267C125.776 45.4119 126.005 45.4545 126.271 45.4545ZM126.271 42.6932C126.479 42.6932 126.664 42.6515 126.825 42.5682C126.987 42.4848 127.115 42.3684 127.208 42.2188C127.301 42.0691 127.348 41.8939 127.35 41.6932C127.348 41.4962 127.302 41.3248 127.211 41.179C127.12 41.0312 126.994 40.9176 126.833 40.8381C126.672 40.7566 126.485 40.7159 126.271 40.7159C126.053 40.7159 125.862 40.7566 125.7 40.8381C125.537 40.9176 125.411 41.0312 125.322 41.179C125.233 41.3248 125.189 41.4962 125.191 41.6932C125.189 41.8939 125.234 42.0691 125.325 42.2188C125.417 42.3684 125.545 42.4848 125.708 42.5682C125.871 42.6515 126.058 42.6932 126.271 42.6932ZM131.598 46V41.6364H132.246V42.3182H132.303C132.393 42.0852 132.54 41.9044 132.743 41.7756C132.946 41.6449 133.189 41.5795 133.473 41.5795C133.761 41.5795 134 41.6449 134.192 41.7756C134.385 41.9044 134.536 42.0852 134.643 42.3182H134.689C134.801 42.0928 134.968 41.9138 135.192 41.7812C135.415 41.6468 135.683 41.5795 135.996 41.5795C136.386 41.5795 136.705 41.7017 136.953 41.946C137.201 42.1884 137.325 42.5663 137.325 43.0795V46H136.655V43.0795C136.655 42.7576 136.567 42.5275 136.391 42.3892C136.214 42.2509 136.007 42.1818 135.768 42.1818C135.462 42.1818 135.224 42.2746 135.055 42.4602C134.887 42.6439 134.803 42.8769 134.803 43.1591V46H134.121V43.0114C134.121 42.7633 134.04 42.5634 133.879 42.4119C133.718 42.2585 133.511 42.1818 133.257 42.1818C133.083 42.1818 132.92 42.2282 132.768 42.321C132.619 42.4138 132.498 42.5426 132.405 42.7074C132.314 42.8703 132.268 43.0587 132.268 43.2727V46H131.598ZM140.608 39.9091L138.733 46.875H138.119L139.994 39.9091H140.608ZM144.494 42.6136L143.891 42.7841C143.853 42.6837 143.798 42.5862 143.724 42.4915C143.652 42.3949 143.553 42.3153 143.428 42.2528C143.303 42.1903 143.143 42.1591 142.948 42.1591C142.681 42.1591 142.459 42.2206 142.281 42.3438C142.104 42.465 142.016 42.6193 142.016 42.8068C142.016 42.9735 142.077 43.1051 142.198 43.2017C142.319 43.2983 142.509 43.3788 142.766 43.4432L143.414 43.6023C143.804 43.697 144.095 43.8419 144.286 44.0369C144.478 44.2301 144.573 44.4792 144.573 44.7841C144.573 45.0341 144.501 45.2576 144.357 45.4545C144.215 45.6515 144.016 45.8068 143.761 45.9205C143.505 46.0341 143.208 46.0909 142.869 46.0909C142.424 46.0909 142.055 45.9943 141.763 45.8011C141.472 45.608 141.287 45.3258 141.21 44.9545L141.846 44.7955C141.906 45.0303 142.021 45.2064 142.19 45.3239C142.36 45.4413 142.583 45.5 142.857 45.5C143.17 45.5 143.418 45.4337 143.602 45.3011C143.787 45.1667 143.88 45.0057 143.88 44.8182C143.88 44.6667 143.827 44.5398 143.721 44.4375C143.615 44.3333 143.452 44.2557 143.232 44.2045L142.505 44.0341C142.105 43.9394 141.812 43.7926 141.624 43.5938C141.439 43.393 141.346 43.142 141.346 42.8409C141.346 42.5947 141.415 42.3769 141.553 42.1875C141.693 41.9981 141.884 41.8494 142.124 41.7415C142.367 41.6335 142.641 41.5795 142.948 41.5795C143.38 41.5795 143.719 41.6742 143.965 41.8636C144.213 42.053 144.389 42.303 144.494 42.6136ZM145.366 43.0909V42.6477L146.696 41.4659C146.829 41.3485 146.939 41.2434 147.028 41.1506C147.117 41.0578 147.185 40.9678 147.23 40.8807C147.276 40.7936 147.298 40.7008 147.298 40.6023C147.298 40.4318 147.233 40.2964 147.102 40.196C146.972 40.0956 146.81 40.0455 146.616 40.0455C146.412 40.0455 146.247 40.1004 146.122 40.2102C145.997 40.3182 145.935 40.4602 145.935 40.6364H145.344C145.344 40.3125 145.464 40.0521 145.705 39.8551C145.945 39.6562 146.253 39.5568 146.628 39.5568C146.878 39.5568 147.098 39.6023 147.287 39.6932C147.476 39.7822 147.624 39.9053 147.73 40.0625C147.836 40.2178 147.889 40.3939 147.889 40.5909C147.889 40.7462 147.858 40.8902 147.795 41.0227C147.733 41.1553 147.635 41.2926 147.503 41.4347C147.37 41.5767 147.2 41.7386 146.991 41.9205L146.253 42.5682V42.5909H147.991V43.0909H145.366Z" fill="black"/>
<circle cx="91" cy="18" r="5" fill="#FF2240"/>
<path d="M102.66 1.29276C102.269 0.902232 101.636 0.902232 101.246 1.29276L94.8818 7.65672C94.4913 8.04724 94.4913 8.68041 94.8818 9.07093C95.2723 9.46145 95.9055 9.46145 96.296 9.07093L101.953 3.41408L107.61 9.07093C108 9.46145 108.633 9.46145 109.024 9.07093C109.414 8.68041 109.414 8.04724 109.024 7.65672L102.66 1.29276ZM101.953 18.2515H102.953V1.99986H101.953H100.953V18.2515H101.953Z" fill="#FF2240"/>
<path d="M101.293 68.9588C101.683 69.3493 102.317 69.3493 102.707 68.9588L109.071 62.5948C109.462 62.2043 109.462 61.5711 109.071 61.1806C108.681 60.7901 108.047 60.7901 107.657 61.1806L102 66.8374L96.3431 61.1806C95.9526 60.7901 95.3195 60.7901 94.9289 61.1806C94.5384 61.5711 94.5384 62.2043 94.9289 62.5948L101.293 68.9588ZM102 52H101V68.2517H102H103V52H102Z" fill="black"/>
</g>
<defs>
<clipPath id="clip0_2001_2">
<rect width="765" height="640" fill="white"/>
</clipPath>
</defs>
</svg>
